<?xml version="1.0" encoding="iso-8859-1"?>
<!-- Generator: Adobe Illustrator 19.0.0, SVG Export Plug-In . SVG Version: 6.00 Build 0)  -->
<svg version="1.1" id="Capa_1" xmlns="http://www.w3.org/2000/svg" xmlns:xlink="http://www.w3.org/1999/xlink" x="0px" y="0px"
	 viewBox="0 0 512 512" style="enable-background:new 0 0 512 512;" xml:space="preserve">
<g>
	<path style="fill:#A6CC2F;" d="M395.086,0.002c-2.148-0.062-4.151,1.16-4.989,3.152c-11.749,27.939,10.047,57.054,36.219,57.054
		c2.066,0,3.944-1.238,4.75-3.157C442.165,30.658,423.617,1.318,395.086,0.002z"/>
	<path style="fill:#A6CC2F;" d="M410.646,126.507c-4.14,0-7.946,0.313-8.726,4.421c-3.986,20.99,11.916,41.033,33.922,41.033
		c4.146,0,7.949-0.311,8.731-4.42C448.573,146.494,432.6,126.507,410.646,126.507z"/>
	<path style="fill:#A6CC2F;" d="M490.169,133.502c-0.289-2.22-1.978-4-4.179-4.405c-23.167-4.269-43.555,15.29-40.535,38.47
		c0.289,2.219,1.977,3.998,4.177,4.404c10.565,1.948,21.77-1.029,30.071-8.903C487.679,155.497,491.592,144.445,490.169,133.502z"/>
	<path style="fill:#A6CC2F;" d="M438.803,114.128c2.049-0.9,3.284-3.019,3.057-5.245c-2.377-23.288-26.728-37.614-48.268-28.164
		c-2.049,0.899-3.284,3.017-3.057,5.243C392.899,109.211,417.224,123.593,438.803,114.128z"/>
	<path style="fill:#A6CC2F;" d="M447.976,111.684c23.31-2.512,37.42-26.998,27.871-48.436c-0.911-2.045-3.037-3.264-5.263-3.028
		c-23.31,2.521-37.416,26.996-27.87,48.435C443.623,110.697,445.746,111.926,447.976,111.684z"/>
</g>
<g>
	<path style="fill:#88C920;" d="M410.47,3.786c-4.774-2.212-9.984-3.535-15.385-3.784c-2.148-0.062-4.151,1.16-4.989,3.152
		c-11.749,27.939,10.047,57.054,36.219,57.054c2.096,0,3.897-1.071,4.994-3.787C411.248,47.128,402.379,23.949,410.47,3.786z"/>
	<path style="fill:#88C920;" d="M423.402,128.925c-3.995-1.582-8.298-2.417-12.756-2.417c-4.14,0-7.946,0.313-8.726,4.421
		c-3.986,20.99,11.916,41.033,33.922,41.033c3.842,0,6.264-0.149,7.866-2.415C420.823,160.491,419.719,134.141,423.402,128.925z"/>
	<path style="fill:#88C920;" d="M488.697,130.529c-3.029-3.029-20.338-4.325-32.781,7.478c-7.976,7.568-11.887,18.618-10.461,29.561
		c0.289,2.219,1.977,3.998,4.177,4.404c5.989,1.104,12.169,0.621,17.916-1.429C462.856,165.859,465.499,138.803,488.697,130.529z"/>
	<path style="fill:#88C920;" d="M411.153,85.962c-0.413-4.063,2.948-5.421,6.636-6.582c-8.195-2.563-16.682-1.958-24.197,1.339
		c-2.049,0.899-3.284,3.017-3.057,5.243c2.207,21.703,23.687,36.043,44.676,29.501C421.609,111.201,412.51,99.311,411.153,85.962z"
		/>
	<path style="fill:#88C920;" d="M476.662,65.251c-0.25-0.674-0.52-1.341-0.814-2.002c-0.911-2.045-3.037-3.264-5.263-3.028
		c-23.31,2.521-37.416,26.996-27.87,48.435c0.909,2.04,3.032,3.269,5.262,3.028c5.224-0.563,10.182-2.322,14.542-5.026
		C456.932,91.645,462.251,74.195,476.662,65.251z"/>
</g>
<path style="fill:#3BBC56;" d="M400.568,283.179c-3.51-2.432-4.385-7.25-1.953-10.76c39.78-57.422,53.173-135.598,23.796-209.225
	c-1.583-3.966,0.35-8.465,4.316-10.048c3.969-1.586,8.465,0.35,10.048,4.316c31.75,79.574,16.576,163.103-25.448,223.764
	C408.899,284.732,404.084,285.614,400.568,283.179z"/>
<path style="fill:#4BA7E0;" d="M115.054,159.768c9.44,6.726,21.359,11.789,36.417,13.49c49.743,5.62,106.374,26.948,126.705,87.539
	c1.155,3.437,4.675,5.488,8.218,4.718c0.748-0.439,1.47-0.894,2.182-1.357v-3.263c0,0,8.457-87.587-80.086-122.711
	c-52.52-20.833-69.623-46.454-75.093-59.249c0-0.001-0.001-0.001-0.001-0.002c-3.489-6.807-7.568-1.701-7.819-1.374
	c-8.77,12.492-24.051,41.523-10.894,79.046L115.054,159.768z"/>
<path style="fill:#4B87DD;" d="M135.675,166.986c-0.81-6.875-15.007-37.469,5.698-74.509c-3.948-5.274-6.429-9.922-7.977-13.541
	c0-0.001-0.001-0.001-0.001-0.002c-3.489-6.807-7.568-1.701-7.819-1.374c-8.77,12.492-24.051,41.523-10.894,79.046l0.373,3.164
	c7.818,5.57,17.341,9.993,28.933,12.317C141.025,170.531,138.254,168.823,135.675,166.986z"/>
<path style="fill:#6EDCF9;" d="M440.101,227.276c11.361-4.419,0.717-6.567,0.717-6.567l0.094-0.042
	c-0.003-0.001-27.226-7.136-27.229-7.136c-15.04-3.388-17.236-13.589-17.236-13.589h-0.003
	c-3.984-20.987-23.024-36.647-45.467-35.287c-24.346,1.478-43.698,23.52-40.472,48.96c2.363,18.643-5.09,37.632-24.111,48.807
	c-3.543,0.77-7.063-1.281-8.218-4.718c-20.331-60.591-76.962-81.919-126.705-87.539c-42.694-4.822-60.248-36.611-67.179-57.01
	c-1.778-5.23-9.142-5.35-11.044-0.168C-2.111,317.978,241.782,283.124,194.336,354.682c-4.592,6.927-9.897,12.924-15.724,18.149
	C129.229,411.412,70.6,401.636,41.136,392.905v0.002c-1.107-0.635-17.649-6.684-19.592,11.031
	c0.694,35.526,15.366,68.776,28.082,82.989l0.004-0.003c9.29,10.675,19.837,18.13,28.372,23.015
	c8.089,4.628,18.374,1.158,22.09-7.39c11.981-27.528,44.764-82.177,113.414-71.808c91.061,13.756,163.751-52.097,160.554-124.783
	c-0.043-0.99-0.058-1.953-0.075-2.919h-0.01c0-9.201,0.613-17.737,3.659-27.454c8.605-28.992,29.445-35.362,29.445-35.362
	l31.281-12.168C438.867,227.793,439.44,227.533,440.101,227.276z"/>
<circle style="fill:#67737C;" cx="360.24" cy="206.34" r="9.699"/>
<g>
	<path style="fill:#5DCEE8;" d="M89.496,125.756c-2.184-4.436-3.888-8.725-5.205-12.601c-1.778-5.23-9.142-5.35-11.044-0.168
		C-2.111,317.978,241.782,283.124,194.336,354.682c-19.224,28.997-55.812,43.619-90.133,45.82
		c54.746,3.372,96.1-21.213,110.754-45.82C272.628,257.847,29.29,315.382,89.496,125.756z"/>
	<path style="fill:#5DCEE8;" d="M364.004,165.815c-29.712-7.22-57.31,17.742-53.499,47.801c2.56,20.195-6.388,38.392-24.111,48.807
		c-2.818,0.612-5.617-0.564-7.228-2.798l-0.001,0.001c5.808,21.072,57.577-1.701,51.961-46.01
		C328.257,190.994,343.278,170.905,364.004,165.815z"/>
	<path style="fill:#5DCEE8;" d="M70.25,486.925l-0.004,0.003c-9.948-11.12-27.307-43.306-28.082-82.989
		c0.516-4.698,2.032-7.719,4.008-9.616c-1.759-0.47-3.443-0.945-5.037-1.418v0.002c-1.107-0.635-17.649-6.684-19.592,11.031
		c0.694,35.526,15.366,68.776,28.082,82.989l0.004-0.003c9.29,10.675,19.837,18.13,28.372,23.015
		c5.91,3.381,12.981,2.425,17.817-1.66C87.845,503.418,78.548,496.46,70.25,486.925z"/>
</g>
<g>
</g>
<g>
</g>
<g>
</g>
<g>
</g>
<g>
</g>
<g>
</g>
<g>
</g>
<g>
</g>
<g>
</g>
<g>
</g>
<g>
</g>
<g>
</g>
<g>
</g>
<g>
</g>
<g>
</g>
</svg>
