<svg id="Layer_2" height="512" viewBox="0 0 128 128" width="512" xmlns="http://www.w3.org/2000/svg" data-name="Layer 2"><path d="m50.508 115.5h26.984a0 0 0 0 1 0 0v7.376a3.373 3.373 0 0 1 -3.373 3.373h-20.238a3.373 3.373 0 0 1 -3.373-3.373v-7.376a0 0 0 0 1 0 0z" fill="#ff6ca8"/><path d="m84.477 109.593-6.985 5.908h-26.984l-6.985-5.908v-9.641h40.954z" fill="#284cb2"/><path d="m98.351 55.589a34.362 34.362 0 1 0 -62.356 20 42.125 42.125 0 0 1 7.615 24.411l40.953-.09a43.4 43.4 0 0 1 7.725-24.745 34.2 34.2 0 0 0 6.063-19.576z" fill="#e8f3fc"/><path d="m86.506 63.272-.013-5.89-4.688.01a17.942 17.942 0 0 0 -3.138-7.574l3.294-3.309-4.174-4.156-3.286 3.3a17.944 17.944 0 0 0 -7.6-3.138l-.01-4.646-5.891.014.01 4.646a17.944 17.944 0 0 0 -7.577 3.171l-3.3-3.286-4.156 4.174 3.309 3.294a17.942 17.942 0 0 0 -3.1 7.587l-4.688.01.013 5.89 4.706-.01a17.944 17.944 0 0 0 3.162 7.531l-3.337 3.352 4.17 4.158 3.346-3.36a17.943 17.943 0 0 0 7.536 3.1l.01 4.748 5.89-.013-.01-4.748a17.943 17.943 0 0 0 7.522-3.129l3.36 3.346 4.156-4.174-3.352-3.343a17.944 17.944 0 0 0 3.13-7.545z" fill="#284cb2"/><path d="m43.523 105.977h40.953v3.5h-40.953z" fill="#1d3ba8"/><circle cx="63.999" cy="60.329" fill="#06daf7" r="10.553" transform="matrix(1 -.002 .002 1 -.133 .141)"/><path d="m92.507 39.812a1.75 1.75 0 0 0 3.057-1.7 36.1 36.1 0 0 0 -2.42-3.771 1.75 1.75 0 0 0 -2.822 2.068 32.794 32.794 0 0 1 2.185 3.403z"/><path d="m97.2 46.6a1.75 1.75 0 0 0 -1.337 2.083 32.827 32.827 0 0 1 .748 6.98 32.414 32.414 0 0 1 -5.793 18.56 44.962 44.962 0 0 0 -8.057 23.977h-37.52a43.376 43.376 0 0 0 -7.853-23.685 32.362 32.362 0 0 1 -5.988-19.715 32.735 32.735 0 0 1 32.608-31.747h.415a32.4 32.4 0 0 1 18.464 6.02 1.75 1.75 0 0 0 2.029-2.852 35.892 35.892 0 0 0 -20.448-6.668 36.262 36.262 0 0 0 -36.568 35.152 35.823 35.823 0 0 0 6.634 21.838 40.14 40.14 0 0 1 7.238 23.409v9.642a1.748 1.748 0 0 0 .62 1.336l6.364 5.383v6.565a5.128 5.128 0 0 0 5.125 5.122h20.238a5.128 5.128 0 0 0 5.123-5.123v-6.565l6.364-5.383a1.748 1.748 0 0 0 .62-1.336v-9.645a41.467 41.467 0 0 1 7.468-23.73 35.9 35.9 0 0 0 6.417-20.554 36.317 36.317 0 0 0 -.828-7.727 1.751 1.751 0 0 0 -2.083-1.337zm-20.349 67.15h-25.7l-5.054-4.274h35.809zm5.876-12.05v4.274h-37.454v-4.274zm-6.984 21.175a1.625 1.625 0 0 1 -1.623 1.623h-20.239a1.625 1.625 0 0 1 -1.623-1.623v-5.626h23.484z"/><path d="m80.936 50.081 2.294-2.295a1.749 1.749 0 0 0 0-2.475l-4.165-4.165a1.749 1.749 0 0 0 -2.475 0l-2.281 2.281a19.891 19.891 0 0 0 -5.609-2.332v-3.219a1.75 1.75 0 0 0 -1.75-1.75h-5.895a1.75 1.75 0 0 0 -1.75 1.75v3.219a19.891 19.891 0 0 0 -5.613 2.333l-2.282-2.282a1.749 1.749 0 0 0 -2.475 0l-4.165 4.165a1.749 1.749 0 0 0 0 2.475l2.294 2.295a19.9 19.9 0 0 0 -2.309 5.6h-3.255a1.75 1.75 0 0 0 -1.75 1.75v5.89a1.75 1.75 0 0 0 1.75 1.75h3.283a19.864 19.864 0 0 0 2.32 5.563l-2.333 2.333a1.749 1.749 0 0 0 0 2.475l4.165 4.165a1.8 1.8 0 0 0 2.475 0l2.346-2.346a19.878 19.878 0 0 0 5.544 2.294v3.321a1.75 1.75 0 0 0 1.75 1.75h5.891a1.75 1.75 0 0 0 1.75-1.75v-3.321a19.878 19.878 0 0 0 5.549-2.294l2.346 2.346a1.749 1.749 0 0 0 2.475 0l4.165-4.165a1.749 1.749 0 0 0 0-2.475l-2.326-2.333a19.864 19.864 0 0 0 2.32-5.562h3.28a1.75 1.75 0 0 0 1.75-1.75v-5.89a1.75 1.75 0 0 0 -1.75-1.75h-3.256a19.9 19.9 0 0 0 -2.308-5.601zm3.814 11.49h-2.956a1.749 1.749 0 0 0 -1.726 1.461 16.309 16.309 0 0 1 -2.841 6.8 1.749 1.749 0 0 0 .183 2.268l2.108 2.1-1.69 1.69-2.115-2.116a1.75 1.75 0 0 0 -2.255-.187 16.315 16.315 0 0 1 -6.8 2.81 1.749 1.749 0 0 0 -1.458 1.731v3h-2.4v-3a1.749 1.749 0 0 0 -1.461-1.728 16.315 16.315 0 0 1 -6.8-2.81 1.75 1.75 0 0 0 -2.255.187l-2.115 2.116-1.69-1.69 2.111-2.103a1.749 1.749 0 0 0 .183-2.261 16.309 16.309 0 0 1 -2.841-6.8 1.749 1.749 0 0 0 -1.726-1.461h-2.956v-2.39h2.937a1.75 1.75 0 0 0 1.728-1.471 16.31 16.31 0 0 1 2.818-6.843 1.75 1.75 0 0 0 -.187-2.255l-2.064-2.064 1.69-1.69 2.056 2.056a1.75 1.75 0 0 0 2.261.183 16.276 16.276 0 0 1 6.849-2.848 1.75 1.75 0 0 0 1.462-1.734v-2.9h2.4v2.9a1.75 1.75 0 0 0 1.467 1.727 16.276 16.276 0 0 1 6.844 2.851 1.748 1.748 0 0 0 2.261-.183l2.056-2.056 1.69 1.69-2.064 2.064a1.75 1.75 0 0 0 -.187 2.255 16.31 16.31 0 0 1 2.818 6.843 1.75 1.75 0 0 0 1.728 1.471h2.937z"/><path d="m64 48.025a12.3 12.3 0 0 0 -9.025 20.663 1.75 1.75 0 1 0 2.566-2.379 8.8 8.8 0 1 1 6.459 2.823 1.75 1.75 0 0 0 0 3.5 12.3 12.3 0 0 0 0-24.606z"/><path d="m64 13.583a1.75 1.75 0 0 0 1.75-1.75v-10.083a1.75 1.75 0 0 0 -3.5 0v10.083a1.75 1.75 0 0 0 1.75 1.75z"/><path d="m106.78 18.745-7.13 7.13a1.75 1.75 0 1 0 2.475 2.475l7.13-7.13a1.75 1.75 0 1 0 -2.475-2.475z"/><path d="m126.25 62.25h-10.083a1.75 1.75 0 1 0 0 3.5h10.083a1.75 1.75 0 0 0 0-3.5z"/><path d="m11.833 62.25h-10.083a1.75 1.75 0 0 0 0 3.5h10.083a1.75 1.75 0 0 0 0-3.5z"/><path d="m28.35 25.875-7.13-7.13a1.75 1.75 0 0 0 -2.475 2.475l7.13 7.13a1.75 1.75 0 1 0 2.475-2.475z"/></svg>