<svg id="Capa_1" enable-background="new 0 0 510 510" height="512" viewBox="0 0 510 510" width="512" xmlns="http://www.w3.org/2000/svg" xmlns:xlink="http://www.w3.org/1999/xlink"><radialGradient id="SVGID_1_" cx="255" cy="255" gradientUnits="userSpaceOnUse" r="255"><stop offset="0" stop-color="#ffe548"/><stop offset=".1086" stop-color="#ffe650" stop-opacity=".891"/><stop offset=".2747" stop-color="#ffe965" stop-opacity=".725"/><stop offset=".4776" stop-color="#fe8" stop-opacity=".522"/><stop offset=".7096" stop-color="#fff5b8" stop-opacity=".29"/><stop offset=".9629" stop-color="#fffef5" stop-opacity=".037"/><stop offset="1" stop-color="#fff" stop-opacity="0"/></radialGradient><linearGradient id="lg1"><stop offset="0" stop-color="#fccece"/><stop offset="1" stop-color="#fba5c2"/></linearGradient><linearGradient id="SVGID_2_" gradientUnits="userSpaceOnUse" x1="202.484" x2="202.484" xlink:href="#lg1" y1="100.666" y2="360.117"/><linearGradient id="SVGID_3_" gradientUnits="userSpaceOnUse" x1="205.585" x2="249.722" xlink:href="#lg1" y1="86.786" y2="122.841"/><linearGradient id="SVGID_4_" gradientUnits="userSpaceOnUse" x1="176.822" x2="255.149" xlink:href="#lg1" y1="290.971" y2="315.215"/><linearGradient id="lg2"><stop offset="0" stop-color="#fccece" stop-opacity="0"/><stop offset="1" stop-color="#bb4966"/></linearGradient><linearGradient id="SVGID_5_" gradientUnits="userSpaceOnUse" x1="195.16" x2="68.967" xlink:href="#lg2" y1="427.391" y2="377.038"/><linearGradient id="lg3"><stop offset="0" stop-color="#a34a9e"/><stop offset="1" stop-color="#343168"/></linearGradient><linearGradient id="SVGID_6_" gradientUnits="userSpaceOnUse" x1="94.388" x2="164.012" xlink:href="#lg3" y1="418.692" y2="549.237"/><linearGradient id="SVGID_7_" gradientTransform="matrix(-1 0 0 1 284.59 0)" gradientUnits="userSpaceOnUse" x1="-22.926" x2="-22.926" xlink:href="#lg1" y1="100.666" y2="360.117"/><linearGradient id="SVGID_8_" gradientUnits="userSpaceOnUse" x1="265.174" x2="312.419" xlink:href="#lg1" y1="73.245" y2="129.193"/><linearGradient id="SVGID_9_" gradientUnits="userSpaceOnUse" x1="289.933" x2="416.748" xlink:href="#lg1" y1="277.07" y2="357.884"/><linearGradient id="SVGID_10_" gradientUnits="userSpaceOnUse" x1="259.338" x2="130.945" xlink:href="#lg2" y1="296.379" y2="255.79"/><linearGradient id="SVGID_11_" gradientUnits="userSpaceOnUse" x1="372.641" x2="421.788" xlink:href="#lg3" y1="401.318" y2="530.778"/><linearGradient id="SVGID_12_" gradientUnits="userSpaceOnUse" x1="259.507" x2="156.453" xlink:href="#lg2" y1="203.334" y2="130.27"/><linearGradient id="lg4"><stop offset="0" stop-color="#ffe548"/><stop offset=".1758" stop-color="#ffde50"/><stop offset=".4446" stop-color="#ffca65"/><stop offset=".7709" stop-color="#ffaa87"/><stop offset="1" stop-color="#ff90a4"/></linearGradient><linearGradient id="SVGID_13_" gradientUnits="userSpaceOnUse" x1="120.734" x2="201.996" xlink:href="#lg4" y1="54.442" y2="156.569"/><linearGradient id="SVGID_14_" gradientUnits="userSpaceOnUse" x1="111.931" x2="152.562" xlink:href="#lg4" y1="168.912" y2="219.975"/><linearGradient id="SVGID_15_" gradientUnits="userSpaceOnUse" x1="390.895" x2="431.526" xlink:href="#lg4" y1="276.455" y2="327.519"/><linearGradient id="SVGID_16_" gradientUnits="userSpaceOnUse" x1="43.682" x2="84.313" xlink:href="#lg4" y1="304.65" y2="355.713"/><linearGradient id="SVGID_17_" gradientUnits="userSpaceOnUse" x1="349.882" x2="390.513" xlink:href="#lg4" y1="187.804" y2="238.867"/><circle cx="255" cy="255" fill="url(#SVGID_1_)" r="255"/><path d="m202.52 79.194-13.475 83.734c-4.658 28.945-6.998 58.215-6.998 87.532v38.235h40.873v-209.501z" fill="url(#SVGID_2_)"/><path d="m253.698 165.785h-54.814v-135.489c0-10.396 9.856-17.651 19.219-14.147 21.349 7.99 35.595 29.139 35.595 52.844z" fill="url(#SVGID_3_)"/><path d="m257.37 362.544-4.6-103.357c-2.213-32.502-1.777-65.13 1.305-97.561l1.989-20.934c2.066-21.744-15.059-40.543-36.913-40.495-12.039.027-21.768 9.85-21.768 21.889v39.61c0 32.198-5.535 64.157-16.362 94.481l-10.299 28.842c-15.332 42.939-23.169 88.194-23.169 133.789v68.751h19.216c8.466 0 16.427-4.03 21.44-10.852 2.933-3.992 6.887-7.174 11.518-8.933 6.273-2.382 12.124-5.876 17.247-10.378 27.145-23.861 42.003-58.746 40.396-94.852z" fill="url(#SVGID_4_)"/><path d="m156.933 332.974c-6.217 28.139-9.381 56.917-9.381 85.833v68.751h19.216c8.466 0 16.427-4.03 21.44-10.852 2.933-3.992 6.887-7.174 11.518-8.933 6.273-2.382 12.124-5.876 17.247-10.378 11.749-10.327 21.191-22.721 27.998-36.383z" fill="url(#SVGID_5_)"/><path d="m156.927 332.969s-24.417 44.412-80.811 81.516c-24.857 16.355-42.33 41.794-48.883 70.818-2.857 12.658 6.767 24.697 19.742 24.697h78.363c25.177 0 48.721-12.468 62.869-33.294-17.276 0-31.28-14.005-31.28-31.28z" fill="url(#SVGID_6_)"/><path d="m307.48 79.194 13.475 83.734c4.658 28.945 6.998 58.215 6.998 87.532v38.235h-40.873v-209.501z" fill="url(#SVGID_7_)"/><path d="m256.302 165.785h54.814v-135.489c0-10.396-9.856-17.651-19.219-14.147-21.349 7.99-35.595 29.139-35.595 52.844z" fill="url(#SVGID_8_)"/><path d="m252.63 362.544 4.6-103.357c2.213-32.502 1.777-65.13-1.305-97.561l-1.989-20.934c-2.066-21.744 15.059-40.543 36.913-40.495 12.039.027 21.768 9.85 21.768 21.889v39.61c0 32.198 5.535 64.157 16.362 94.481l10.299 28.842c15.332 42.939 23.169 88.194 23.169 133.789v68.751h-19.216c-8.466 0-16.427-4.03-21.44-10.852-2.933-3.992-6.887-7.174-11.518-8.933-6.273-2.382-12.124-5.876-17.247-10.378-27.145-23.861-42.003-58.746-40.396-94.852z" fill="url(#SVGID_9_)"/><path d="m362.45 418.805v68.754h-19.221c-8.467 0-16.424-4.028-21.434-10.854-2.934-3.991-6.888-7.174-11.525-8.927-6.266-2.387-12.122-5.881-17.244-10.381-27.141-23.859-41.998-58.745-40.394-94.85l4.6-103.354c2.213-32.512 1.778-65.136-1.305-97.561l-1.989-20.937c-.385-4.053-.099-7.994.771-11.737l59.18 59.168c2.176 23.187 7.236 46.051 15.094 68.045l10.294 28.844c15.328 42.943 23.173 88.199 23.173 133.79z" fill="url(#SVGID_10_)"/><path d="m353.073 332.969s24.417 44.412 80.811 81.516c24.857 16.355 42.33 41.794 48.883 70.818 2.857 12.658-6.767 24.697-19.742 24.697h-78.363c-25.177 0-48.721-12.468-62.869-33.294 17.276 0 31.28-14.005 31.28-31.28z" fill="url(#SVGID_11_)"/><path d="m251.543 231.099c-.49-23.18.337-46.377 2.531-69.473l.925-9.739.925 9.739c2.408 25.335 3.177 50.789 2.354 76.21l94.655 94.655c-3.565-16.064-8.104-31.923-13.656-47.472l-10.299-28.842c-5.901-16.528-10.218-33.543-12.935-50.816l-86.084-85.891-40.915 43.459c-.264 1.638-.508 3.278-.755 4.918z" fill="url(#SVGID_12_)"/><path d="m228.784 129.728c-18.782 12.289-34.797 28.459-46.914 47.364-2.725 4.251-9.031 4.251-11.755 0-12.116-18.905-28.13-35.075-46.913-47.363-4.169-2.728-4.169-8.947 0-11.675 18.783-12.29 34.798-28.46 46.914-47.364 2.724-4.251 9.03-4.251 11.755 0 12.116 18.905 28.132 35.075 46.914 47.364 4.168 2.727 4.168 8.946-.001 11.674z" fill="url(#SVGID_13_)"/><path d="m165.957 206.555c-9.391 6.144-17.399 14.229-23.457 23.682-1.362 2.126-4.515 2.126-5.878 0-6.058-9.452-14.065-17.537-23.456-23.682-2.085-1.364-2.085-4.474 0-5.837 9.391-6.144 17.399-14.229 23.456-23.682 1.362-2.126 4.515-2.126 5.878 0 6.058 9.452 14.066 17.537 23.457 23.682 2.084 1.363 2.084 4.473 0 5.837z" fill="url(#SVGID_14_)"/><path d="m444.92 314.098c-9.391 6.144-17.399 14.229-23.457 23.682-1.362 2.126-4.515 2.126-5.878 0-6.058-9.452-14.065-17.537-23.456-23.682-2.085-1.364-2.085-4.474 0-5.837 9.391-6.144 17.399-14.229 23.456-23.682 1.362-2.126 4.515-2.126 5.878 0 6.058 9.452 14.066 17.537 23.457 23.682 2.085 1.364 2.085 4.473 0 5.837z" fill="url(#SVGID_15_)"/><path d="m97.708 342.293c-9.391 6.144-17.399 14.229-23.457 23.682-1.362 2.126-4.515 2.126-5.878 0-6.058-9.452-14.065-17.537-23.456-23.682-2.085-1.364-2.084-4.474 0-5.837 9.391-6.144 17.399-14.229 23.456-23.682 1.362-2.126 4.515-2.126 5.878 0 6.058 9.452 14.066 17.537 23.457 23.682 2.084 1.363 2.084 4.473 0 5.837z" fill="url(#SVGID_16_)"/><path d="m403.907 225.447c-9.391 6.144-17.399 14.229-23.457 23.682-1.362 2.126-4.515 2.126-5.878 0-6.058-9.452-14.065-17.537-23.456-23.682-2.085-1.364-2.085-4.474 0-5.837 9.391-6.144 17.399-14.229 23.456-23.682 1.362-2.126 4.515-2.126 5.878 0 6.058 9.452 14.066 17.537 23.457 23.682 2.085 1.363 2.085 4.473 0 5.837z" fill="url(#SVGID_17_)"/></svg>