<svg xmlns="http://www.w3.org/2000/svg" xmlns:xlink="http://www.w3.org/1999/xlink" width="139" height="153" viewBox="0 0 139 153"><defs><clipPath id="b"><rect width="139" height="153"/></clipPath></defs><g id="a" clip-path="url(#b)"><g transform="translate(-167 16)"><circle cx="7.5" cy="7.5" r="7.5" transform="translate(232.276 0.428) rotate(49)" fill="#9415e8"/><circle cx="7.5" cy="7.5" r="7.5" transform="translate(249.334 20.05) rotate(49)" fill="#9415e8"/><circle cx="7.5" cy="7.5" r="7.5" transform="translate(266.391 39.673) rotate(49)" fill="#9415e8"/><circle cx="7.5" cy="7.5" r="7.5" transform="translate(283.449 59.295) rotate(49)" fill="#9415e8"/><circle cx="7.5" cy="7.5" r="7.5" transform="translate(212.654 17.486) rotate(49)" fill="#9415e8"/><circle cx="7.5" cy="7.5" r="7.5" transform="translate(229.711 37.108) rotate(49)" fill="#9415e8"/><circle cx="7.5" cy="7.5" r="7.5" transform="translate(246.769 56.73) rotate(49)" fill="#9415e8"/><circle cx="7.5" cy="7.5" r="7.5" transform="translate(263.826 76.353) rotate(49)" fill="#9415e8"/><circle cx="7.5" cy="7.5" r="7.5" transform="translate(193.031 34.543) rotate(49)" fill="#9415e8"/><circle cx="7.5" cy="7.5" r="7.5" transform="translate(210.089 54.166) rotate(49)" fill="#9415e8"/><circle cx="7.5" cy="7.5" r="7.5" transform="translate(227.146 73.788) rotate(49)" fill="#9415e8"/><circle cx="7.5" cy="7.5" r="7.5" transform="translate(244.204 93.41) rotate(49)" fill="#9415e8"/></g></g></svg>