<svg xmlns="http://www.w3.org/2000/svg" xmlns:xlink="http://www.w3.org/1999/xlink" width="113" height="325" viewBox="0 0 113 325"><defs><clipPath id="b"><rect width="113" height="325"/></clipPath></defs><g id="a" clip-path="url(#b)"><circle cx="7.5" cy="7.5" r="7.5" transform="translate(10 12)" fill="#9415e8"/><circle cx="7.5" cy="7.5" r="7.5" transform="translate(36 12)" fill="#9415e8"/><circle cx="7.5" cy="7.5" r="7.5" transform="translate(62 12)" fill="#9415e8"/><circle cx="7.5" cy="7.5" r="7.5" transform="translate(88 12)" fill="#9415e8"/><circle cx="7.5" cy="7.5" r="7.5" transform="translate(10 38)" fill="#9415e8"/><circle cx="7.5" cy="7.5" r="7.5" transform="translate(36 38)" fill="#9415e8"/><circle cx="7.5" cy="7.5" r="7.5" transform="translate(62 38)" fill="#9415e8"/><circle cx="7.5" cy="7.5" r="7.5" transform="translate(88 38)" fill="#9415e8"/><circle cx="7.5" cy="7.5" r="7.5" transform="translate(10 64)" fill="#9415e8"/><circle cx="7.5" cy="7.5" r="7.5" transform="translate(36 64)" fill="#9415e8"/><circle cx="7.5" cy="7.5" r="7.5" transform="translate(62 64)" fill="#9415e8"/><circle cx="7.5" cy="7.5" r="7.5" transform="translate(88 64)" fill="#9415e8"/><circle cx="7.5" cy="7.5" r="7.5" transform="translate(10 90)" fill="#9415e8"/><circle cx="7.5" cy="7.5" r="7.5" transform="translate(36 90)" fill="#9415e8"/><circle cx="7.5" cy="7.5" r="7.5" transform="translate(10 116)" fill="#9415e8"/><circle cx="7.5" cy="7.5" r="7.5" transform="translate(36 116)" fill="#9415e8"/><circle cx="7.5" cy="7.5" r="7.5" transform="translate(10 142)" fill="#9415e8"/><circle cx="7.5" cy="7.5" r="7.5" transform="translate(36 142)" fill="#9415e8"/><circle cx="7.5" cy="7.5" r="7.5" transform="translate(10 168)" fill="#9415e8"/><circle cx="7.5" cy="7.5" r="7.5" transform="translate(36 168)" fill="#9415e8"/><circle cx="7.5" cy="7.5" r="7.5" transform="translate(10 194)" fill="#9415e8"/><circle cx="7.5" cy="7.5" r="7.5" transform="translate(36 194)" fill="#9415e8"/><circle cx="7.5" cy="7.5" r="7.5" transform="translate(10 220)" fill="#9415e8"/><circle cx="7.5" cy="7.5" r="7.5" transform="translate(36 220)" fill="#9415e8"/><circle cx="7.5" cy="7.5" r="7.5" transform="translate(10 246)" fill="#9415e8"/><circle cx="7.5" cy="7.5" r="7.5" transform="translate(36 246)" fill="#9415e8"/><circle cx="7.5" cy="7.5" r="7.5" transform="translate(10 272)" fill="#9415e8"/><circle cx="7.5" cy="7.5" r="7.5" transform="translate(36 272)" fill="#9415e8"/><circle cx="7.5" cy="7.5" r="7.5" transform="translate(10 298)" fill="#9415e8"/><circle cx="7.5" cy="7.5" r="7.5" transform="translate(36 298)" fill="#9415e8"/></g></svg>