<svg width="227" height="509" viewBox="0 0 227 509" fill="none" xmlns="http://www.w3.org/2000/svg">
<path fill-rule="evenodd" clip-rule="evenodd" d="M6.45936 509C10.0268 509 12.9187 506.12 12.9187 502.568C12.9187 499.016 10.0268 496.137 6.45936 496.137C2.89196 496.137 0 499.016 0 502.568C0 506.12 2.89196 509 6.45936 509ZM6.45936 463.978C10.0268 463.978 12.9187 461.098 12.9187 457.546C12.9187 453.994 10.0268 451.114 6.45936 451.114C2.89196 451.114 0 453.994 0 457.546C0 461.098 2.89196 463.978 6.45936 463.978ZM6.45936 418.956C10.0268 418.956 12.9187 416.076 12.9187 412.524C12.9187 408.972 10.0268 406.092 6.45936 406.092C2.89196 406.092 0 408.972 0 412.524C0 416.076 2.89196 418.956 6.45936 418.956ZM6.45936 373.934C10.0268 373.934 12.9187 371.054 12.9187 367.502C12.9187 363.95 10.0268 361.07 6.45936 361.07C2.89196 361.07 0 363.95 0 367.502C0 371.054 2.89196 373.934 6.45936 373.934ZM6.45936 328.912C10.0268 328.912 12.9187 326.032 12.9187 322.48C12.9187 318.928 10.0268 316.048 6.45936 316.048C2.89196 316.048 0 318.928 0 322.48C0 326.032 2.89196 328.912 6.45936 328.912ZM6.45936 283.89C10.0268 283.89 12.9187 281.01 12.9187 277.458C12.9187 273.906 10.0268 271.026 6.45936 271.026C2.89196 271.026 0 273.906 0 277.458C0 281.01 2.89196 283.89 6.45936 283.89ZM48.9064 509C52.4738 509 55.3657 506.12 55.3657 502.568C55.3657 499.016 52.4738 496.137 48.9064 496.137C45.339 496.137 42.447 499.016 42.447 502.568C42.447 506.12 45.339 509 48.9064 509ZM48.9064 463.978C52.4738 463.978 55.3657 461.098 55.3657 457.546C55.3657 453.994 52.4738 451.114 48.9064 451.114C45.339 451.114 42.447 453.994 42.447 457.546C42.447 461.098 45.339 463.978 48.9064 463.978ZM48.9064 418.956C52.4738 418.956 55.3657 416.076 55.3657 412.524C55.3657 408.972 52.4738 406.092 48.9064 406.092C45.339 406.092 42.447 408.972 42.447 412.524C42.447 416.076 45.339 418.956 48.9064 418.956ZM48.9064 373.934C52.4738 373.934 55.3657 371.054 55.3657 367.502C55.3657 363.95 52.4738 361.07 48.9064 361.07C45.339 361.07 42.447 363.95 42.447 367.502C42.447 371.054 45.339 373.934 48.9064 373.934ZM48.9064 328.912C52.4738 328.912 55.3657 326.032 55.3657 322.48C55.3657 318.928 52.4738 316.048 48.9064 316.048C45.339 316.048 42.447 318.928 42.447 322.48C42.447 326.032 45.339 328.912 48.9064 328.912ZM48.9064 283.89C52.4738 283.89 55.3657 281.01 55.3657 277.458C55.3657 273.906 52.4738 271.026 48.9064 271.026C45.339 271.026 42.447 273.906 42.447 277.458C42.447 281.01 45.339 283.89 48.9064 283.89ZM91.3537 509C94.9211 509 97.813 506.12 97.813 502.568C97.813 499.016 94.9211 496.137 91.3537 496.137C87.7864 496.137 84.8945 499.016 84.8945 502.568C84.8945 506.12 87.7864 509 91.3537 509ZM91.3537 463.978C94.9211 463.978 97.813 461.098 97.813 457.546C97.813 453.994 94.9211 451.114 91.3537 451.114C87.7864 451.114 84.8945 453.994 84.8945 457.546C84.8945 461.098 87.7864 463.978 91.3537 463.978ZM91.3537 418.956C94.9211 418.956 97.813 416.076 97.813 412.524C97.813 408.972 94.9211 406.092 91.3537 406.092C87.7864 406.092 84.8945 408.972 84.8945 412.524C84.8945 416.076 87.7864 418.956 91.3537 418.956ZM91.3537 373.934C94.9211 373.934 97.813 371.054 97.813 367.502C97.813 363.95 94.9211 361.07 91.3537 361.07C87.7864 361.07 84.8945 363.95 84.8945 367.502C84.8945 371.054 87.7864 373.934 91.3537 373.934ZM91.3537 283.89C94.9211 283.89 97.813 281.01 97.813 277.458C97.813 273.906 94.9211 271.026 91.3537 271.026C87.7864 271.026 84.8945 273.906 84.8945 277.458C84.8945 281.01 87.7864 283.89 91.3537 283.89ZM135.646 509C139.214 509 142.106 506.12 142.106 502.568C142.106 499.016 139.214 496.137 135.646 496.137C132.079 496.137 129.187 499.016 129.187 502.568C129.187 506.12 132.079 509 135.646 509ZM135.646 463.978C139.214 463.978 142.106 461.098 142.106 457.546C142.106 453.994 139.214 451.114 135.646 451.114C132.079 451.114 129.187 453.994 129.187 457.546C129.187 461.098 132.079 463.978 135.646 463.978ZM135.646 418.956C139.214 418.956 142.106 416.076 142.106 412.524C142.106 408.972 139.214 406.092 135.646 406.092C132.079 406.092 129.187 408.972 129.187 412.524C129.187 416.076 132.079 418.956 135.646 418.956ZM135.646 373.934C139.214 373.934 142.106 371.054 142.106 367.502C142.106 363.95 139.214 361.07 135.646 361.07C132.079 361.07 129.187 363.95 129.187 367.502C129.187 371.054 132.079 373.934 135.646 373.934ZM135.646 283.89C139.214 283.89 142.106 281.01 142.106 277.458C142.106 273.906 139.214 271.026 135.646 271.026C132.079 271.026 129.187 273.906 129.187 277.458C129.187 281.01 132.079 283.89 135.646 283.89ZM178.093 509C181.661 509 184.553 506.12 184.553 502.568C184.553 499.016 181.661 496.137 178.093 496.137C174.526 496.137 171.634 499.016 171.634 502.568C171.634 506.12 174.526 509 178.093 509ZM178.093 463.978C181.661 463.978 184.553 461.098 184.553 457.546C184.553 453.994 181.661 451.114 178.093 451.114C174.526 451.114 171.634 453.994 171.634 457.546C171.634 461.098 174.526 463.978 178.093 463.978ZM178.093 418.956C181.661 418.956 184.553 416.076 184.553 412.524C184.553 408.972 181.661 406.092 178.093 406.092C174.526 406.092 171.634 408.972 171.634 412.524C171.634 416.076 174.526 418.956 178.093 418.956ZM178.093 373.934C181.661 373.934 184.553 371.054 184.553 367.502C184.553 363.95 181.661 361.07 178.093 361.07C174.526 361.07 171.634 363.95 171.634 367.502C171.634 371.054 174.526 373.934 178.093 373.934ZM178.093 283.89C181.661 283.89 184.553 281.01 184.553 277.458C184.553 273.906 181.661 271.026 178.093 271.026C174.526 271.026 171.634 273.906 171.634 277.458C171.634 281.01 174.526 283.89 178.093 283.89ZM220.541 509C224.108 509 227 506.12 227 502.568C227 499.016 224.108 496.137 220.541 496.137C216.973 496.137 214.081 499.016 214.081 502.568C214.081 506.12 216.973 509 220.541 509ZM220.541 463.978C224.108 463.978 227 461.098 227 457.546C227 453.994 224.108 451.114 220.541 451.114C216.973 451.114 214.081 453.994 214.081 457.546C214.081 461.098 216.973 463.978 220.541 463.978ZM220.541 418.956C224.108 418.956 227 416.076 227 412.524C227 408.972 224.108 406.092 220.541 406.092C216.973 406.092 214.081 408.972 214.081 412.524C214.081 416.076 216.973 418.956 220.541 418.956ZM220.541 373.934C224.108 373.934 227 371.054 227 367.502C227 363.95 224.108 361.07 220.541 361.07C216.973 361.07 214.081 363.95 214.081 367.502C214.081 371.054 216.973 373.934 220.541 373.934ZM220.541 283.89C224.108 283.89 227 281.01 227 277.458C227 273.906 224.108 271.026 220.541 271.026C216.973 271.026 214.081 273.906 214.081 277.458C214.081 281.01 216.973 283.89 220.541 283.89ZM6.45936 237.974C10.0268 237.974 12.9187 235.094 12.9187 231.542C12.9187 227.99 10.0268 225.111 6.45936 225.111C2.89196 225.111 0 227.99 0 231.542C0 235.094 2.89196 237.974 6.45936 237.974ZM6.45936 192.952C10.0268 192.952 12.9187 190.072 12.9187 186.52C12.9187 182.968 10.0268 180.088 6.45936 180.088C2.89196 180.088 0 182.968 0 186.52C0 190.072 2.89196 192.952 6.45936 192.952ZM48.9064 237.974C52.4738 237.974 55.3657 235.094 55.3657 231.542C55.3657 227.99 52.4738 225.111 48.9064 225.111C45.339 225.111 42.447 227.99 42.447 231.542C42.447 235.094 45.339 237.974 48.9064 237.974ZM48.9064 192.952C52.4738 192.952 55.3657 190.072 55.3657 186.52C55.3657 182.968 52.4738 180.088 48.9064 180.088C45.339 180.088 42.447 182.968 42.447 186.52C42.447 190.072 45.339 192.952 48.9064 192.952ZM48.9064 147.93C52.4738 147.93 55.3657 145.05 55.3657 141.498C55.3657 137.946 52.4738 135.066 48.9064 135.066C45.339 135.066 42.447 137.946 42.447 141.498C42.447 145.05 45.339 147.93 48.9064 147.93ZM48.9064 102.908C52.4738 102.908 55.3657 100.028 55.3657 96.476C55.3657 92.9238 52.4738 90.0443 48.9064 90.0443C45.339 90.0443 42.447 92.9238 42.447 96.476C42.447 100.028 45.339 102.908 48.9064 102.908ZM48.9064 57.8857C52.4738 57.8857 55.3657 55.006 55.3657 51.4539C55.3657 47.9017 52.4738 45.0221 48.9064 45.0221C45.339 45.0221 42.447 47.9017 42.447 51.4539C42.447 55.006 45.339 57.8857 48.9064 57.8857ZM48.9064 12.8634C52.4738 12.8634 55.3657 9.98386 55.3657 6.43172C55.3657 2.87958 52.4738 0 48.9064 0C45.339 0 42.447 2.87958 42.447 6.43172C42.447 9.98386 45.339 12.8634 48.9064 12.8634ZM91.3537 237.974C94.9211 237.974 97.813 235.094 97.813 231.542C97.813 227.99 94.9211 225.111 91.3537 225.111C87.7864 225.111 84.8945 227.99 84.8945 231.542C84.8945 235.094 87.7864 237.974 91.3537 237.974ZM91.3537 192.952C94.9211 192.952 97.813 190.072 97.813 186.52C97.813 182.968 94.9211 180.088 91.3537 180.088C87.7864 180.088 84.8945 182.968 84.8945 186.52C84.8945 190.072 87.7864 192.952 91.3537 192.952ZM91.3537 147.93C94.9211 147.93 97.813 145.05 97.813 141.498C97.813 137.946 94.9211 135.066 91.3537 135.066C87.7864 135.066 84.8945 137.946 84.8945 141.498C84.8945 145.05 87.7864 147.93 91.3537 147.93ZM91.3537 102.908C94.9211 102.908 97.813 100.028 97.813 96.476C97.813 92.9238 94.9211 90.0443 91.3537 90.0443C87.7864 90.0443 84.8945 92.9238 84.8945 96.476C84.8945 100.028 87.7864 102.908 91.3537 102.908ZM91.3537 57.8857C94.9211 57.8857 97.813 55.006 97.813 51.4539C97.813 47.9017 94.9211 45.0221 91.3537 45.0221C87.7864 45.0221 84.8945 47.9017 84.8945 51.4539C84.8945 55.006 87.7864 57.8857 91.3537 57.8857ZM91.3537 12.8634C94.9211 12.8634 97.813 9.98386 97.813 6.43172C97.813 2.87958 94.9211 0 91.3537 0C87.7864 0 84.8945 2.87958 84.8945 6.43172C84.8945 9.98386 87.7864 12.8634 91.3537 12.8634ZM135.646 237.974C139.214 237.974 142.106 235.094 142.106 231.542C142.106 227.99 139.214 225.111 135.646 225.111C132.079 225.111 129.187 227.99 129.187 231.542C129.187 235.094 132.079 237.974 135.646 237.974ZM135.646 192.952C139.214 192.952 142.106 190.072 142.106 186.52C142.106 182.968 139.214 180.088 135.646 180.088C132.079 180.088 129.187 182.968 129.187 186.52C129.187 190.072 132.079 192.952 135.646 192.952ZM135.646 147.93C139.214 147.93 142.106 145.05 142.106 141.498C142.106 137.946 139.214 135.066 135.646 135.066C132.079 135.066 129.187 137.946 129.187 141.498C129.187 145.05 132.079 147.93 135.646 147.93ZM135.646 102.908C139.214 102.908 142.106 100.028 142.106 96.476C142.106 92.9238 139.214 90.0443 135.646 90.0443C132.079 90.0443 129.187 92.9238 129.187 96.476C129.187 100.028 132.079 102.908 135.646 102.908ZM135.646 57.8857C139.214 57.8857 142.106 55.006 142.106 51.4539C142.106 47.9017 139.214 45.0221 135.646 45.0221C132.079 45.0221 129.187 47.9017 129.187 51.4539C129.187 55.006 132.079 57.8857 135.646 57.8857ZM135.646 12.8634C139.214 12.8634 142.106 9.98386 142.106 6.43172C142.106 2.87958 139.214 0 135.646 0C132.079 0 129.187 2.87958 129.187 6.43172C129.187 9.98386 132.079 12.8634 135.646 12.8634ZM178.093 237.974C181.661 237.974 184.553 235.094 184.553 231.542C184.553 227.99 181.661 225.111 178.093 225.111C174.526 225.111 171.634 227.99 171.634 231.542C171.634 235.094 174.526 237.974 178.093 237.974ZM178.093 192.952C181.661 192.952 184.553 190.072 184.553 186.52C184.553 182.968 181.661 180.088 178.093 180.088C174.526 180.088 171.634 182.968 171.634 186.52C171.634 190.072 174.526 192.952 178.093 192.952ZM178.093 147.93C181.661 147.93 184.553 145.05 184.553 141.498C184.553 137.946 181.661 135.066 178.093 135.066C174.526 135.066 171.634 137.946 171.634 141.498C171.634 145.05 174.526 147.93 178.093 147.93ZM178.093 102.908C181.661 102.908 184.553 100.028 184.553 96.476C184.553 92.9238 181.661 90.0443 178.093 90.0443C174.526 90.0443 171.634 92.9238 171.634 96.476C171.634 100.028 174.526 102.908 178.093 102.908ZM178.093 57.8857C181.661 57.8857 184.553 55.006 184.553 51.4539C184.553 47.9017 181.661 45.0221 178.093 45.0221C174.526 45.0221 171.634 47.9017 171.634 51.4539C171.634 55.006 174.526 57.8857 178.093 57.8857ZM178.093 12.8634C181.661 12.8634 184.553 9.98386 184.553 6.43172C184.553 2.87958 181.661 0 178.093 0C174.526 0 171.634 2.87958 171.634 6.43172C171.634 9.98386 174.526 12.8634 178.093 12.8634ZM220.541 237.974C224.108 237.974 227 235.094 227 231.542C227 227.99 224.108 225.111 220.541 225.111C216.973 225.111 214.081 227.99 214.081 231.542C214.081 235.094 216.973 237.974 220.541 237.974ZM220.541 192.952C224.108 192.952 227 190.072 227 186.52C227 182.968 224.108 180.088 220.541 180.088C216.973 180.088 214.081 182.968 214.081 186.52C214.081 190.072 216.973 192.952 220.541 192.952ZM220.541 147.93C224.108 147.93 227 145.05 227 141.498C227 137.946 224.108 135.066 220.541 135.066C216.973 135.066 214.081 137.946 214.081 141.498C214.081 145.05 216.973 147.93 220.541 147.93ZM220.541 102.908C224.108 102.908 227 100.028 227 96.476C227 92.9238 224.108 90.0443 220.541 90.0443C216.973 90.0443 214.081 92.9238 214.081 96.476C214.081 100.028 216.973 102.908 220.541 102.908ZM220.541 57.8857C224.108 57.8857 227 55.006 227 51.4539C227 47.9017 224.108 45.0221 220.541 45.0221C216.973 45.0221 214.081 47.9017 214.081 51.4539C214.081 55.006 216.973 57.8857 220.541 57.8857ZM220.541 12.8635C224.108 12.8635 227 9.98389 227 6.43175C227 2.87961 224.108 2.75685e-05 220.541 2.75685e-05C216.973 2.75685e-05 214.081 2.87961 214.081 6.43175C214.081 9.98389 216.973 12.8635 220.541 12.8635Z" fill="#4130FB"/>
</svg>
