<svg xmlns="http://www.w3.org/2000/svg" xmlns:xlink="http://www.w3.org/1999/xlink" width="444" height="471" viewBox="0 0 444 471"><defs><clipPath id="b"><rect width="444" height="471"/></clipPath></defs><g id="a" clip-path="url(#b)"><rect width="12" height="308" transform="matrix(0.695, -0.719, 0.719, 0.695, 7.023, 235.924)" fill="#11c86d"/><rect width="12" height="308" transform="matrix(0.695, -0.719, 0.719, 0.695, 29.252, 212.905)" fill="#11c86d"/><rect width="12" height="308" transform="matrix(0.695, -0.719, 0.719, 0.695, 51.481, 189.886)" fill="#11c86d"/><rect width="12" height="308" transform="matrix(0.695, -0.719, 0.719, 0.695, 73.71, 166.867)" fill="#11c86d"/><rect width="12" height="308" transform="matrix(0.695, -0.719, 0.719, 0.695, 95.939, 143.848)" fill="#11c86d"/><rect width="12" height="308" transform="matrix(0.695, -0.719, 0.719, 0.695, 118.168, 120.829)" fill="#11c86d"/><rect width="12" height="308" transform="matrix(0.695, -0.719, 0.719, 0.695, 140.397, 97.81)" fill="#11c86d"/><rect width="12" height="308" transform="matrix(0.695, -0.719, 0.719, 0.695, 162.626, 74.791)" fill="#11c86d"/><rect width="12" height="308" transform="matrix(0.695, -0.719, 0.719, 0.695, 184.855, 51.773)" fill="#11c86d"/><rect width="12" height="308" transform="matrix(0.695, -0.719, 0.719, 0.695, 207.085, 28.754)" fill="#11c86d"/></g></svg>